<mxfile host="app.diagrams.net" modified="2021-05-12T13:20:00.375Z" agent="5.0 (X11; CrOS aarch64 13816.64.0) AppleWebKit/537.36 (KHTML, like Gecko) Chrome/90.0.4430.100 Safari/537.36" etag="GQLB588mTropM4pCGwY8" version="14.6.11" type="github">
  <diagram id="LMp1uyV72flOtbx3s6zy" name="Page-1">
    <mxGraphModel dx="582" dy="383" grid="1" gridSize="10" guides="1" tooltips="1" connect="1" arrows="1" fold="1" page="1" pageScale="1" pageWidth="850" pageHeight="1100" math="0" shadow="0">
      <root>
        <mxCell id="0" />
        <mxCell id="1" parent="0" />
        <mxCell id="Edq-G2Y9Ox4geMTukykN-8" style="edgeStyle=orthogonalEdgeStyle;rounded=0;orthogonalLoop=1;jettySize=auto;html=1;exitX=0.5;exitY=1;exitDx=0;exitDy=0;entryX=0.5;entryY=0;entryDx=0;entryDy=0;" edge="1" parent="1" source="Edq-G2Y9Ox4geMTukykN-1" target="Edq-G2Y9Ox4geMTukykN-3">
          <mxGeometry relative="1" as="geometry" />
        </mxCell>
        <mxCell id="Edq-G2Y9Ox4geMTukykN-9" style="edgeStyle=orthogonalEdgeStyle;rounded=0;orthogonalLoop=1;jettySize=auto;html=1;exitX=0.5;exitY=1;exitDx=0;exitDy=0;entryX=0.5;entryY=0;entryDx=0;entryDy=0;" edge="1" parent="1" source="Edq-G2Y9Ox4geMTukykN-1" target="Edq-G2Y9Ox4geMTukykN-2">
          <mxGeometry relative="1" as="geometry" />
        </mxCell>
        <mxCell id="Edq-G2Y9Ox4geMTukykN-10" style="edgeStyle=orthogonalEdgeStyle;rounded=0;orthogonalLoop=1;jettySize=auto;html=1;exitX=0.5;exitY=1;exitDx=0;exitDy=0;entryX=0.5;entryY=0;entryDx=0;entryDy=0;" edge="1" parent="1" source="Edq-G2Y9Ox4geMTukykN-1" target="Edq-G2Y9Ox4geMTukykN-4">
          <mxGeometry relative="1" as="geometry" />
        </mxCell>
        <mxCell id="Edq-G2Y9Ox4geMTukykN-1" value="Is it a leap year?" style="rounded=0;whiteSpace=wrap;html=1;" vertex="1" parent="1">
          <mxGeometry x="240" y="170" width="120" height="60" as="geometry" />
        </mxCell>
        <mxCell id="Edq-G2Y9Ox4geMTukykN-11" style="edgeStyle=orthogonalEdgeStyle;rounded=0;orthogonalLoop=1;jettySize=auto;html=1;exitX=0.5;exitY=1;exitDx=0;exitDy=0;entryX=0.5;entryY=0;entryDx=0;entryDy=0;" edge="1" parent="1" source="Edq-G2Y9Ox4geMTukykN-2" target="Edq-G2Y9Ox4geMTukykN-5">
          <mxGeometry relative="1" as="geometry" />
        </mxCell>
        <mxCell id="Edq-G2Y9Ox4geMTukykN-2" value="Input" style="rounded=0;whiteSpace=wrap;html=1;" vertex="1" parent="1">
          <mxGeometry x="80" y="280" width="120" height="60" as="geometry" />
        </mxCell>
        <mxCell id="Edq-G2Y9Ox4geMTukykN-12" style="edgeStyle=orthogonalEdgeStyle;rounded=0;orthogonalLoop=1;jettySize=auto;html=1;exitX=0.5;exitY=1;exitDx=0;exitDy=0;entryX=0.5;entryY=0;entryDx=0;entryDy=0;" edge="1" parent="1" source="Edq-G2Y9Ox4geMTukykN-3" target="Edq-G2Y9Ox4geMTukykN-6">
          <mxGeometry relative="1" as="geometry" />
        </mxCell>
        <mxCell id="Edq-G2Y9Ox4geMTukykN-3" value="Process" style="rounded=0;whiteSpace=wrap;html=1;" vertex="1" parent="1">
          <mxGeometry x="240" y="280" width="120" height="60" as="geometry" />
        </mxCell>
        <mxCell id="Edq-G2Y9Ox4geMTukykN-13" style="edgeStyle=orthogonalEdgeStyle;rounded=0;orthogonalLoop=1;jettySize=auto;html=1;exitX=0.5;exitY=1;exitDx=0;exitDy=0;entryX=0.5;entryY=0;entryDx=0;entryDy=0;" edge="1" parent="1" source="Edq-G2Y9Ox4geMTukykN-4" target="Edq-G2Y9Ox4geMTukykN-7">
          <mxGeometry relative="1" as="geometry" />
        </mxCell>
        <mxCell id="Edq-G2Y9Ox4geMTukykN-4" value="Output" style="rounded=0;whiteSpace=wrap;html=1;" vertex="1" parent="1">
          <mxGeometry x="400" y="280" width="120" height="60" as="geometry" />
        </mxCell>
        <mxCell id="Edq-G2Y9Ox4geMTukykN-5" value="Get year" style="rounded=0;whiteSpace=wrap;html=1;" vertex="1" parent="1">
          <mxGeometry x="80" y="400" width="120" height="60" as="geometry" />
        </mxCell>
        <mxCell id="Edq-G2Y9Ox4geMTukykN-6" value="Check if year is leap year or common year." style="rounded=0;whiteSpace=wrap;html=1;" vertex="1" parent="1">
          <mxGeometry x="240" y="400" width="120" height="60" as="geometry" />
        </mxCell>
        <mxCell id="Edq-G2Y9Ox4geMTukykN-7" value="Show if year is a common year or leap year." style="rounded=0;whiteSpace=wrap;html=1;" vertex="1" parent="1">
          <mxGeometry x="400" y="400" width="120" height="60" as="geometry" />
        </mxCell>
      </root>
    </mxGraphModel>
  </diagram>
</mxfile>
